# xmcd CD database file
#
# Track frame offsets:
#	150
#	20128
#	47645
#	80927
#	111467
#	116245
#	143079
#	186178
#	208819
#	211761
#
# Disc length: 3012 seconds
#
# Revision: 0
# Processed by: cddbd v1.5.2PL0 Copyright (c) Steve Scherf et al.
# Submitted via: CDex 1.70beta2
#
DISCID=9c0bc20a
DTITLE=Champion Jack Dupree - Jivin' With Jack Disc 2
DYEAR=1966
DGENRE=Jazz
TTITLE0=Walking The Blues
TTITLE1=How Long Blues
TTITLE2=Alberta
TTITLE3=Big Legged Mama
TTITLE4=Champion Jack Talks
TTITLE5=Going Down Slow
TTITLE6=We're Gonna Rock 'N' Roll - Hey! La Bas
TTITLE7=Stack-O-Lee
TTITLE8=Champion Jack Talks
TTITLE9=Until We Meet Again
EXTD=YEAR: 1966
EXTT0=
EXTT1=
EXTT2=
EXTT3=
EXTT4=
EXTT5=
EXTT6=
EXTT7=
EXTT8=
EXTT9=
PLAYORDER=
